<?xml version="1.0" encoding="UTF-8" standalone="no"?>
<!DOCTYPE svg PUBLIC "-//W3C//DTD SVG 1.1//EN"
 "http://www.w3.org/Graphics/SVG/1.1/DTD/svg11.dtd">
<!-- Generated by graphviz version 2.43.0 (0)
 -->
<!-- Title: Architecture Pages: 1 -->
<svg width="1190pt" height="672pt"
 viewBox="0.00 0.00 1190.10 671.60" xmlns="http://www.w3.org/2000/svg" xmlns:xlink="http://www.w3.org/1999/xlink">
<g id="graph0" class="graph" transform="scale(1 1) rotate(0) translate(28.8 642.8)">
<title>Architecture</title>
<polygon fill="white" stroke="transparent" points="-28.8,28.8 -28.8,-642.8 1161.3,-642.8 1161.3,28.8 -28.8,28.8"/>
<g id="clust1" class="cluster">
<title>cluster_client</title>
<path fill="#ffffff" stroke="#eaecf0" d="M449.5,-528C449.5,-528 736.5,-528 736.5,-528 742.5,-528 748.5,-534 748.5,-540 748.5,-540 748.5,-590 748.5,-590 748.5,-596 742.5,-602 736.5,-602 736.5,-602 449.5,-602 449.5,-602 443.5,-602 437.5,-596 437.5,-590 437.5,-590 437.5,-540 437.5,-540 437.5,-534 443.5,-528 449.5,-528"/>
<text text-anchor="middle" x="593" y="-587.6" font-family="Helvetica,sans-Serif" font-size="13.00" fill="#222222">Client Layer</text>
</g>
<g id="clust2" class="cluster">
<title>cluster_gw</title>
<path fill="#ffffff" stroke="#eaecf0" d="M562.5,-267C562.5,-267 725.5,-267 725.5,-267 731.5,-267 737.5,-273 737.5,-279 737.5,-279 737.5,-406 737.5,-406 737.5,-412 731.5,-418 725.5,-418 725.5,-418 562.5,-418 562.5,-418 556.5,-418 550.5,-412 550.5,-406 550.5,-406 550.5,-279 550.5,-279 550.5,-273 556.5,-267 562.5,-267"/>
<text text-anchor="middle" x="644" y="-403.6" font-family="Helvetica,sans-Serif" font-size="13.00" fill="#222222">Gateway &amp; Edge Services</text>
</g>
<g id="clust4" class="cluster">
<title>cluster_async</title>
<path fill="#ffffff" stroke="#eaecf0" d="M425.5,-86C425.5,-86 537.5,-86 537.5,-86 543.5,-86 549.5,-92 549.5,-98 549.5,-98 549.5,-148 549.5,-148 549.5,-154 543.5,-160 537.5,-160 537.5,-160 425.5,-160 425.5,-160 419.5,-160 413.5,-154 413.5,-148 413.5,-148 413.5,-98 413.5,-98 413.5,-92 419.5,-86 425.5,-86"/>
<text text-anchor="middle" x="481.5" y="-145.6" font-family="Helvetica,sans-Serif" font-size="13.00" fill="#222222">Async / Eventing</text>
</g>
<g id="clust6" class="cluster">
<title>cluster_infra</title>
<path fill="#ffffff" stroke="#eaecf0" d="M777.5,-524C777.5,-524 1112.5,-524 1112.5,-524 1118.5,-524 1124.5,-530 1124.5,-536 1124.5,-536 1124.5,-594 1124.5,-594 1124.5,-600 1118.5,-606 1112.5,-606 1112.5,-606 777.5,-606 777.5,-606 771.5,-606 765.5,-600 765.5,-594 765.5,-594 765.5,-536 765.5,-536 765.5,-530 771.5,-524 777.5,-524"/>
<text text-anchor="middle" x="945" y="-591.6" font-family="Helvetica,sans-Serif" font-size="13.00" fill="#222222">Platform &amp; Observability</text>
</g>
<!-- web -->
<g id="node1" class="node">
<title>web</title>
<path fill="#ffe4e8" stroke="#ffb3c0" stroke-width="1.2" d="M600,-572C600,-572 457,-572 457,-572 451,-572 445,-566 445,-560 445,-560 445,-548 445,-548 445,-542 451,-536 457,-536 457,-536 600,-536 600,-536 606,-536 612,-542 612,-548 612,-548 612,-560 612,-560 612,-566 606,-572 600,-572"/>
<text text-anchor="middle" x="528.5" y="-557.2" font-family="Helvetica,sans-Serif" font-size="11.00">Web App</text>
<text text-anchor="middle" x="528.5" y="-545.2" font-family="Helvetica,sans-Serif" font-size="11.00">(React / Next.js, SSR+CSR)</text>
</g>
<!-- cdn -->
<g id="node3" class="node">
<title>cdn</title>
<path fill="#fff4e5" stroke="#ffd08a" stroke-width="1.2" d="M719.5,-491C719.5,-491 567.5,-491 567.5,-491 561.5,-491 555.5,-485 555.5,-479 555.5,-479 555.5,-459 555.5,-459 555.5,-453 561.5,-447 567.5,-447 567.5,-447 719.5,-447 719.5,-447 725.5,-447 731.5,-453 731.5,-459 731.5,-459 731.5,-479 731.5,-479 731.5,-485 725.5,-491 719.5,-491"/>
<text text-anchor="middle" x="643.5" y="-478.2" font-family="Helvetica,sans-Serif" font-size="11.00">Global CDN / Edge</text>
<text text-anchor="middle" x="643.5" y="-466.2" font-family="Helvetica,sans-Serif" font-size="11.00">(CloudFront, Vercel Edge)</text>
<text text-anchor="middle" x="643.5" y="-454.2" font-family="Helvetica,sans-Serif" font-size="11.00">static assets + edge caching</text>
</g>
<!-- web&#45;&gt;cdn -->
<g id="edge1" class="edge">
<title>web&#45;&gt;cdn</title>
<path fill="none" stroke="#98a2b3" d="M583.75,-535.97C583.75,-535.97 583.75,-498.24 583.75,-498.24"/>
<polygon fill="#98a2b3" stroke="#98a2b3" points="586.2,-498.24 583.75,-491.24 581.3,-498.24 586.2,-498.24"/>
</g>
<!-- mobile -->
<g id="node2" class="node">
<title>mobile</title>
<path fill="#ffe4e8" stroke="#ffb3c0" stroke-width="1.2" d="M729,-572C729,-572 656,-572 656,-572 650,-572 644,-566 644,-560 644,-560 644,-548 644,-548 644,-542 650,-536 656,-536 656,-536 729,-536 729,-536 735,-536 741,-542 741,-548 741,-548 741,-560 741,-560 741,-566 735,-572 729,-572"/>
<text text-anchor="middle" x="692.5" y="-557.2" font-family="Helvetica,sans-Serif" font-size="11.00">iOS / Android</text>
<text text-anchor="middle" x="692.5" y="-545.2" font-family="Helvetica,sans-Serif" font-size="11.00">(React Native)</text>
</g>
<!-- mobile&#45;&gt;cdn -->
<g id="edge2" class="edge">
<title>mobile&#45;&gt;cdn</title>
<path fill="none" stroke="#98a2b3" d="M687.75,-535.97C687.75,-535.97 687.75,-498.24 687.75,-498.24"/>
<polygon fill="#98a2b3" stroke="#98a2b3" points="690.2,-498.24 687.75,-491.24 685.3,-498.24 690.2,-498.24"/>
</g>
<!-- lb -->
<g id="node4" class="node">
<title>lb</title>
<path fill="#f9fafb" stroke="#d0d5dd" stroke-width="1.2" d="M679,-388C679,-388 608,-388 608,-388 602,-388 596,-382 596,-376 596,-376 596,-364 596,-364 596,-358 602,-352 608,-352 608,-352 679,-352 679,-352 685,-352 691,-358 691,-364 691,-364 691,-376 691,-376 691,-382 685,-388 679,-388"/>
<text text-anchor="middle" x="643.5" y="-373.2" font-family="Helvetica,sans-Serif" font-size="11.00">Load Balancer</text>
<text text-anchor="middle" x="643.5" y="-361.2" font-family="Helvetica,sans-Serif" font-size="11.00">(L7, multi&#45;AZ)</text>
</g>
<!-- cdn&#45;&gt;lb -->
<g id="edge3" class="edge">
<title>cdn&#45;&gt;lb</title>
<path fill="none" stroke="#98a2b3" d="M643.5,-446.54C643.5,-446.54 643.5,-395.08 643.5,-395.08"/>
<polygon fill="#98a2b3" stroke="#98a2b3" points="645.95,-395.08 643.5,-388.08 641.05,-395.08 645.95,-395.08"/>
</g>
<!-- gw -->
<g id="node5" class="node">
<title>gw</title>
<path fill="#f9fafb" stroke="#d0d5dd" stroke-width="1.2" d="M712.5,-311C712.5,-311 574.5,-311 574.5,-311 568.5,-311 562.5,-305 562.5,-299 562.5,-299 562.5,-287 562.5,-287 562.5,-281 568.5,-275 574.5,-275 574.5,-275 712.5,-275 712.5,-275 718.5,-275 724.5,-281 724.5,-287 724.5,-287 724.5,-299 724.5,-299 724.5,-305 718.5,-311 712.5,-311"/>
<text text-anchor="middle" x="643.5" y="-296.2" font-family="Helvetica,sans-Serif" font-size="11.00">API Gateway</text>
<text text-anchor="middle" x="643.5" y="-284.2" font-family="Helvetica,sans-Serif" font-size="11.00">auth, rate limiting, routing</text>
</g>
<!-- lb&#45;&gt;gw -->
<g id="edge4" class="edge">
<title>lb&#45;&gt;gw</title>
<path fill="none" stroke="#98a2b3" d="M643.5,-351.75C643.5,-351.75 643.5,-318.12 643.5,-318.12"/>
<polygon fill="#98a2b3" stroke="#98a2b3" points="645.95,-318.12 643.5,-311.12 641.05,-318.12 645.95,-318.12"/>
</g>
<!-- listings -->
<g id="node6" class="node">
<title>listings</title>
<path fill="#f9fafb" stroke="#d0d5dd" stroke-width="1.2" d="M236,-234C236,-234 157,-234 157,-234 151,-234 145,-228 145,-222 145,-222 145,-210 145,-210 145,-204 151,-198 157,-198 157,-198 236,-198 236,-198 242,-198 248,-204 248,-210 248,-210 248,-222 248,-222 248,-228 242,-234 236,-234"/>
<text text-anchor="middle" x="196.5" y="-213.2" font-family="Helvetica,sans-Serif" font-size="11.00">Listings Service</text>
</g>
<!-- gw&#45;&gt;listings -->
<g id="edge5" class="edge">
<title>gw&#45;&gt;listings</title>
<path fill="none" stroke="#98a2b3" d="M562.29,-287C433.42,-287 196.5,-287 196.5,-287 196.5,-287 196.5,-241.28 196.5,-241.28"/>
<polygon fill="#98a2b3" stroke="#98a2b3" points="198.95,-241.28 196.5,-234.28 194.05,-241.28 198.95,-241.28"/>
</g>
<!-- search -->
<g id="node7" class="node">
<title>search</title>
<path fill="#f9fafb" stroke="#d0d5dd" stroke-width="1.2" d="M815.5,-234C815.5,-234 741.5,-234 741.5,-234 735.5,-234 729.5,-228 729.5,-222 729.5,-222 729.5,-210 729.5,-210 729.5,-204 735.5,-198 741.5,-198 741.5,-198 815.5,-198 815.5,-198 821.5,-198 827.5,-204 827.5,-210 827.5,-210 827.5,-222 827.5,-222 827.5,-228 821.5,-234 815.5,-234"/>
<text text-anchor="middle" x="778.5" y="-213.2" font-family="Helvetica,sans-Serif" font-size="11.00">Search Service</text>
</g>
<!-- gw&#45;&gt;search -->
<g id="edge6" class="edge">
<title>gw&#45;&gt;search</title>
<path fill="none" stroke="#98a2b3" d="M724.5,-284C731.65,-284 736.25,-284 736.25,-284 736.25,-284 736.25,-241.22 736.25,-241.22"/>
<polygon fill="#98a2b3" stroke="#98a2b3" points="738.7,-241.22 736.25,-234.22 733.8,-241.22 738.7,-241.22"/>
</g>
<!-- booking -->
<g id="node8" class="node">
<title>booking</title>
<path fill="#f9fafb" stroke="#d0d5dd" stroke-width="1.2" d="M546,-234C546,-234 449,-234 449,-234 443,-234 437,-228 437,-222 437,-222 437,-210 437,-210 437,-204 443,-198 449,-198 449,-198 546,-198 546,-198 552,-198 558,-204 558,-210 558,-210 558,-222 558,-222 558,-228 552,-234 546,-234"/>
<text text-anchor="middle" x="497.5" y="-219.2" font-family="Helvetica,sans-Serif" font-size="11.00">Booking &amp;</text>
<text text-anchor="middle" x="497.5" y="-207.2" font-family="Helvetica,sans-Serif" font-size="11.00">Availability Service</text>
</g>
<!-- gw&#45;&gt;booking -->
<g id="edge7" class="edge">
<title>gw&#45;&gt;booking</title>
<path fill="none" stroke="#98a2b3" d="M580.83,-274.75C580.83,-251.98 580.83,-216 580.83,-216 580.83,-216 565.06,-216 565.06,-216"/>
<polygon fill="#98a2b3" stroke="#98a2b3" points="565.06,-213.55 558.06,-216 565.06,-218.45 565.06,-213.55"/>
</g>
<!-- payments -->
<g id="node9" class="node">
<title>payments</title>
<path fill="#f9fafb" stroke="#d0d5dd" stroke-width="1.2" d="M963,-234C963,-234 872,-234 872,-234 866,-234 860,-228 860,-222 860,-222 860,-210 860,-210 860,-204 866,-198 872,-198 872,-198 963,-198 963,-198 969,-198 975,-204 975,-210 975,-210 975,-222 975,-222 975,-228 969,-234 963,-234"/>
<text text-anchor="middle" x="917.5" y="-213.2" font-family="Helvetica,sans-Serif" font-size="11.00">Payments Service</text>
</g>
<!-- gw&#45;&gt;payments -->
<g id="edge8" class="edge">
<title>gw&#45;&gt;payments</title>
<path fill="none" stroke="#98a2b3" d="M724.66,-293C799.8,-293 900,-293 900,-293 900,-293 900,-241.25 900,-241.25"/>
<polygon fill="#98a2b3" stroke="#98a2b3" points="902.45,-241.25 900,-234.25 897.55,-241.25 902.45,-241.25"/>
</g>
<!-- users -->
<g id="node10" class="node">
<title>users</title>
<path fill="#f9fafb" stroke="#d0d5dd" stroke-width="1.2" d="M1090,-234C1090,-234 1019,-234 1019,-234 1013,-234 1007,-228 1007,-222 1007,-222 1007,-210 1007,-210 1007,-204 1013,-198 1019,-198 1019,-198 1090,-198 1090,-198 1096,-198 1102,-204 1102,-210 1102,-210 1102,-222 1102,-222 1102,-228 1096,-234 1090,-234"/>
<text text-anchor="middle" x="1054.5" y="-219.2" font-family="Helvetica,sans-Serif" font-size="11.00">Users / Host</text>
<text text-anchor="middle" x="1054.5" y="-207.2" font-family="Helvetica,sans-Serif" font-size="11.00">Profile Service</text>
</g>
<!-- gw&#45;&gt;users -->
<g id="edge9" class="edge">
<title>gw&#45;&gt;users</title>
<path fill="none" stroke="#98a2b3" d="M724.7,-302C844.48,-302 1054.5,-302 1054.5,-302 1054.5,-302 1054.5,-241.24 1054.5,-241.24"/>
<polygon fill="#98a2b3" stroke="#98a2b3" points="1056.95,-241.24 1054.5,-234.24 1052.05,-241.24 1056.95,-241.24"/>
</g>
<!-- reviews -->
<g id="node11" class="node">
<title>reviews</title>
<path fill="#f9fafb" stroke="#d0d5dd" stroke-width="1.2" d="M685,-234C685,-234 602,-234 602,-234 596,-234 590,-228 590,-222 590,-222 590,-210 590,-210 590,-204 596,-198 602,-198 602,-198 685,-198 685,-198 691,-198 697,-204 697,-210 697,-210 697,-222 697,-222 697,-228 691,-234 685,-234"/>
<text text-anchor="middle" x="643.5" y="-213.2" font-family="Helvetica,sans-Serif" font-size="11.00">Reviews Service</text>
</g>
<!-- gw&#45;&gt;reviews -->
<g id="edge10" class="edge">
<title>gw&#45;&gt;reviews</title>
<path fill="none" stroke="#98a2b3" d="M643.5,-274.75C643.5,-274.75 643.5,-241.12 643.5,-241.12"/>
<polygon fill="#98a2b3" stroke="#98a2b3" points="645.95,-241.12 643.5,-234.12 641.05,-241.12 645.95,-241.12"/>
</g>
<!-- media -->
<g id="node12" class="node">
<title>media</title>
<path fill="#f9fafb" stroke="#d0d5dd" stroke-width="1.2" d="M101,-234C101,-234 12,-234 12,-234 6,-234 0,-228 0,-222 0,-222 0,-210 0,-210 0,-204 6,-198 12,-198 12,-198 101,-198 101,-198 107,-198 113,-204 113,-210 113,-210 113,-222 113,-222 113,-228 107,-234 101,-234"/>
<text text-anchor="middle" x="56.5" y="-219.2" font-family="Helvetica,sans-Serif" font-size="11.00">Media Processing</text>
<text text-anchor="middle" x="56.5" y="-207.2" font-family="Helvetica,sans-Serif" font-size="11.00">Service</text>
</g>
<!-- gw&#45;&gt;media -->
<g id="edge11" class="edge">
<title>gw&#45;&gt;media</title>
<path fill="none" stroke="#98a2b3" d="M562.5,-299C401.47,-299 56.5,-299 56.5,-299 56.5,-299 56.5,-241.01 56.5,-241.01"/>
<polygon fill="#98a2b3" stroke="#98a2b3" points="58.95,-241.01 56.5,-234.01 54.05,-241.01 58.95,-241.01"/>
</g>
<!-- queue -->
<g id="node14" class="node">
<title>queue</title>
<path fill="#eaf6ff" stroke="#9bd3f5" stroke-width="1.2" d="M529.5,-130C529.5,-130 433.5,-130 433.5,-130 427.5,-130 421.5,-124 421.5,-118 421.5,-118 421.5,-106 421.5,-106 421.5,-100 427.5,-94 433.5,-94 433.5,-94 529.5,-94 529.5,-94 535.5,-94 541.5,-100 541.5,-106 541.5,-106 541.5,-118 541.5,-118 541.5,-124 535.5,-130 529.5,-130"/>
<text text-anchor="middle" x="481.5" y="-115.2" font-family="Helvetica,sans-Serif" font-size="11.00">Event Bus</text>
<text text-anchor="middle" x="481.5" y="-103.2" font-family="Helvetica,sans-Serif" font-size="11.00">(Kafka / SQS+SNS)</text>
</g>
<!-- listings&#45;&gt;queue -->
<g id="edge22" class="edge">
<title>listings&#45;&gt;queue</title>
<path fill="none" stroke="#98a2b3" stroke-dasharray="5,2" d="M235,-197.88C235,-168.09 235,-112 235,-112 235,-112 414.2,-112 414.2,-112"/>
<polygon fill="#98a2b3" stroke="#98a2b3" points="414.2,-114.45 421.2,-112 414.2,-109.55 414.2,-114.45"/>
<text text-anchor="middle" x="363" y="-170.8" font-family="Helvetica,sans-Serif" font-size="9.00">listing.updated</text>
</g>
<!-- pg -->
<g id="node15" class="node">
<title>pg</title>
<path fill="#eaf9f0" stroke="#a6e3c4" stroke-width="1.2" d="M784,-44C784,-44 661,-44 661,-44 655,-44 649,-38 649,-32 649,-32 649,-12 649,-12 649,-6 655,0 661,0 661,0 784,0 784,0 790,0 796,-6 796,-12 796,-12 796,-32 796,-32 796,-38 790,-44 784,-44"/>
<text text-anchor="middle" x="722.5" y="-31.2" font-family="Helvetica,sans-Serif" font-size="11.00">PostgreSQL</text>
<text text-anchor="middle" x="722.5" y="-19.2" font-family="Helvetica,sans-Serif" font-size="11.00">primary + read replicas</text>
<text text-anchor="middle" x="722.5" y="-7.2" font-family="Helvetica,sans-Serif" font-size="11.00">(sharded by region)</text>
</g>
<!-- listings&#45;&gt;pg -->
<g id="edge12" class="edge">
<title>listings&#45;&gt;pg</title>
<path fill="none" stroke="#98a2b3" d="M209,-197.87C209,-177.43 209,-147 209,-147 209,-147 661,-147 661,-147 661,-147 661,-51.06 661,-51.06"/>
<polygon fill="#98a2b3" stroke="#98a2b3" points="663.45,-51.06 661,-44.06 658.55,-51.06 663.45,-51.06"/>
</g>
<!-- cache -->
<g id="node16" class="node">
<title>cache</title>
<path fill="#eaf9f0" stroke="#a6e3c4" stroke-width="1.2" d="M301,-44C301,-44 208,-44 208,-44 202,-44 196,-38 196,-32 196,-32 196,-12 196,-12 196,-6 202,0 208,0 208,0 301,0 301,0 307,0 313,-6 313,-12 313,-12 313,-32 313,-32 313,-38 307,-44 301,-44"/>
<text text-anchor="middle" x="254.5" y="-31.2" font-family="Helvetica,sans-Serif" font-size="11.00">Redis Cluster</text>
<text text-anchor="middle" x="254.5" y="-19.2" font-family="Helvetica,sans-Serif" font-size="11.00">(session, pricing,</text>
<text text-anchor="middle" x="254.5" y="-7.2" font-family="Helvetica,sans-Serif" font-size="11.00">availability cache)</text>
</g>
<!-- listings&#45;&gt;cache -->
<g id="edge17" class="edge">
<title>listings&#45;&gt;cache</title>
<path fill="none" stroke="#98a2b3" d="M222,-197.75C222,-197.75 222,-51.18 222,-51.18"/>
<polygon fill="#98a2b3" stroke="#98a2b3" points="224.45,-51.18 222,-44.18 219.55,-51.18 224.45,-51.18"/>
</g>
<!-- objstore -->
<g id="node18" class="node">
<title>objstore</title>
<path fill="#eaf9f0" stroke="#a6e3c4" stroke-width="1.2" d="M123,-40C123,-40 22,-40 22,-40 16,-40 10,-34 10,-28 10,-28 10,-16 10,-16 10,-10 16,-4 22,-4 22,-4 123,-4 123,-4 129,-4 135,-10 135,-16 135,-16 135,-28 135,-28 135,-34 129,-40 123,-40"/>
<text text-anchor="middle" x="72.5" y="-25.2" font-family="Helvetica,sans-Serif" font-size="11.00">Object Storage (S3)</text>
<text text-anchor="middle" x="72.5" y="-13.2" font-family="Helvetica,sans-Serif" font-size="11.00">photos, docs</text>
</g>
<!-- listings&#45;&gt;objstore -->
<g id="edge21" class="edge">
<title>listings&#45;&gt;objstore</title>
<path fill="none" stroke="#98a2b3" stroke-dasharray="5,2" d="M144.97,-216C133.16,-216 124,-216 124,-216 124,-216 124,-47.25 124,-47.25"/>
<polygon fill="#98a2b3" stroke="#98a2b3" points="126.45,-47.25 124,-40.25 121.55,-47.25 126.45,-47.25"/>
</g>
<!-- search_idx -->
<g id="node17" class="node">
<title>search_idx</title>
<path fill="#eaf9f0" stroke="#a6e3c4" stroke-width="1.2" d="M579,-40C579,-40 436,-40 436,-40 430,-40 424,-34 424,-28 424,-28 424,-16 424,-16 424,-10 430,-4 436,-4 436,-4 579,-4 579,-4 585,-4 591,-10 591,-16 591,-16 591,-28 591,-28 591,-34 585,-40 579,-40"/>
<text text-anchor="middle" x="507.5" y="-25.2" font-family="Helvetica,sans-Serif" font-size="11.00">OpenSearch / Elasticsearch</text>
<text text-anchor="middle" x="507.5" y="-13.2" font-family="Helvetica,sans-Serif" font-size="11.00">(listing search index)</text>
</g>
<!-- search&#45;&gt;search_idx -->
<g id="edge19" class="edge">
<title>search&#45;&gt;search_idx</title>
<path fill="none" stroke="#98a2b3" d="M762.75,-197.68C762.75,-189.21 762.75,-181 762.75,-181 762.75,-181 571.67,-181 571.67,-181 571.67,-181 571.67,-47.24 571.67,-47.24"/>
<polygon fill="#98a2b3" stroke="#98a2b3" points="574.12,-47.24 571.67,-40.24 569.22,-47.24 574.12,-47.24"/>
</g>
<!-- booking&#45;&gt;queue -->
<g id="edge23" class="edge">
<title>booking&#45;&gt;queue</title>
<path fill="none" stroke="#98a2b3" stroke-dasharray="5,2" d="M489.25,-197.88C489.25,-197.88 489.25,-137.26 489.25,-137.26"/>
<polygon fill="#98a2b3" stroke="#98a2b3" points="491.7,-137.26 489.25,-130.26 486.8,-137.26 491.7,-137.26"/>
<text text-anchor="middle" x="519.5" y="-170.8" font-family="Helvetica,sans-Serif" font-size="9.00">booking.created</text>
</g>
<!-- booking&#45;&gt;pg -->
<g id="edge13" class="edge">
<title>booking&#45;&gt;pg</title>
<path fill="none" stroke="#98a2b3" d="M549.75,-197.81C549.75,-182.82 549.75,-164 549.75,-164 549.75,-164 673,-164 673,-164 673,-164 673,-51.19 673,-51.19"/>
<polygon fill="#98a2b3" stroke="#98a2b3" points="675.45,-51.19 673,-44.19 670.55,-51.19 675.45,-51.19"/>
</g>
<!-- booking&#45;&gt;cache -->
<g id="edge18" class="edge">
<title>booking&#45;&gt;cache</title>
<path fill="none" stroke="#98a2b3" d="M436.99,-222C423.44,-222 413,-222 413,-222 413,-222 413,-21 413,-21 413,-21 320.07,-21 320.07,-21"/>
<polygon fill="#98a2b3" stroke="#98a2b3" points="320.07,-18.55 313.07,-21 320.07,-23.45 320.07,-18.55"/>
</g>
<!-- payments&#45;&gt;pg -->
<g id="edge14" class="edge">
<title>payments&#45;&gt;pg</title>
<path fill="none" stroke="#98a2b3" d="M917.5,-197.73C917.5,-150.68 917.5,-29 917.5,-29 917.5,-29 803.22,-29 803.22,-29"/>
<polygon fill="#98a2b3" stroke="#98a2b3" points="803.22,-26.55 796.22,-29 803.22,-31.45 803.22,-26.55"/>
</g>
<!-- users&#45;&gt;pg -->
<g id="edge15" class="edge">
<title>users&#45;&gt;pg</title>
<path fill="none" stroke="#98a2b3" d="M1054.5,-197.72C1054.5,-147.99 1054.5,-14 1054.5,-14 1054.5,-14 803.18,-14 803.18,-14"/>
<polygon fill="#98a2b3" stroke="#98a2b3" points="803.18,-11.55 796.18,-14 803.18,-16.45 803.18,-11.55"/>
</g>
<!-- reviews&#45;&gt;queue -->
<g id="edge24" class="edge">
<title>reviews&#45;&gt;queue</title>
<path fill="none" stroke="#98a2b3" stroke-dasharray="5,2" d="M620,-197.88C620,-168.09 620,-112 620,-112 620,-112 548.85,-112 548.85,-112"/>
<polygon fill="#98a2b3" stroke="#98a2b3" points="548.85,-109.55 541.85,-112 548.85,-114.45 548.85,-109.55"/>
<text text-anchor="middle" x="667" y="-170.8" font-family="Helvetica,sans-Serif" font-size="9.00">review.created</text>
</g>
<!-- reviews&#45;&gt;pg -->
<g id="edge16" class="edge">
<title>reviews&#45;&gt;pg</title>
<path fill="none" stroke="#98a2b3" d="M685,-197.75C685,-197.75 685,-51.18 685,-51.18"/>
<polygon fill="#98a2b3" stroke="#98a2b3" points="687.45,-51.18 685,-44.18 682.55,-51.18 687.45,-51.18"/>
</g>
<!-- media&#45;&gt;objstore -->
<g id="edge20" class="edge">
<title>media&#45;&gt;objstore</title>
<path fill="none" stroke="#98a2b3" d="M61.5,-197.75C61.5,-197.75 61.5,-47.06 61.5,-47.06"/>
<polygon fill="#98a2b3" stroke="#98a2b3" points="63.95,-47.06 61.5,-40.06 59.05,-47.06 63.95,-47.06"/>
</g>
<!-- notif -->
<g id="node13" class="node">
<title>notif</title>
<path fill="#f9fafb" stroke="#d0d5dd" stroke-width="1.2" d="M392.5,-234C392.5,-234 292.5,-234 292.5,-234 286.5,-234 280.5,-228 280.5,-222 280.5,-222 280.5,-210 280.5,-210 280.5,-204 286.5,-198 292.5,-198 292.5,-198 392.5,-198 392.5,-198 398.5,-198 404.5,-204 404.5,-210 404.5,-210 404.5,-222 404.5,-222 404.5,-228 398.5,-234 392.5,-234"/>
<text text-anchor="middle" x="342.5" y="-213.2" font-family="Helvetica,sans-Serif" font-size="11.00">Notification Service</text>
</g>
<!-- queue&#45;&gt;notif -->
<g id="edge26" class="edge">
<title>queue&#45;&gt;notif</title>
<path fill="none" stroke="#98a2b3" stroke-dasharray="5,2" d="M429.25,-130.43C429.25,-158.82 429.25,-210 429.25,-210 429.25,-210 411.62,-210 411.62,-210"/>
<polygon fill="#98a2b3" stroke="#98a2b3" points="411.62,-207.55 404.62,-210 411.62,-212.45 411.62,-207.55"/>
</g>
<!-- queue&#45;&gt;search_idx -->
<g id="edge25" class="edge">
<title>queue&#45;&gt;search_idx</title>
<path fill="none" stroke="#98a2b3" stroke-dasharray="5,2" d="M482.75,-93.79C482.75,-93.79 482.75,-47.19 482.75,-47.19"/>
<polygon fill="#98a2b3" stroke="#98a2b3" points="485.2,-47.19 482.75,-40.19 480.3,-47.19 485.2,-47.19"/>
<text text-anchor="middle" x="511.5" y="-66.8" font-family="Helvetica,sans-Serif" font-size="9.00">reindex</text>
</g>
<!-- obs -->
<g id="node19" class="node">
<title>obs</title>
<path fill="#f5f0ff" stroke="#d6c6f5" stroke-width="1.2" d="M1104.5,-576C1104.5,-576 984.5,-576 984.5,-576 978.5,-576 972.5,-570 972.5,-564 972.5,-564 972.5,-544 972.5,-544 972.5,-538 978.5,-532 984.5,-532 984.5,-532 1104.5,-532 1104.5,-532 1110.5,-532 1116.5,-538 1116.5,-544 1116.5,-544 1116.5,-564 1116.5,-564 1116.5,-570 1110.5,-576 1104.5,-576"/>
<text text-anchor="middle" x="1044.5" y="-563.2" font-family="Helvetica,sans-Serif" font-size="11.00">Metrics / Logs / Tracing</text>
<text text-anchor="middle" x="1044.5" y="-551.2" font-family="Helvetica,sans-Serif" font-size="11.00">(Prometheus, Grafana,</text>
<text text-anchor="middle" x="1044.5" y="-539.2" font-family="Helvetica,sans-Serif" font-size="11.00">OpenTelemetry)</text>
</g>
<!-- ci -->
<g id="node20" class="node">
<title>ci</title>
<path fill="#f5f0ff" stroke="#d6c6f5" stroke-width="1.2" d="M928,-572C928,-572 785,-572 785,-572 779,-572 773,-566 773,-560 773,-560 773,-548 773,-548 773,-542 779,-536 785,-536 785,-536 928,-536 928,-536 934,-536 940,-542 940,-548 940,-548 940,-560 940,-560 940,-566 934,-572 928,-572"/>
<text text-anchor="middle" x="856.5" y="-557.2" font-family="Helvetica,sans-Serif" font-size="11.00">CI/CD</text>
<text text-anchor="middle" x="856.5" y="-545.2" font-family="Helvetica,sans-Serif" font-size="11.00">(build, test, canary deploy)</text>
</g>
</g>
</svg>
